<svg width="63" height="65" viewBox="0 0 63 65" fill="none" xmlns="http://www.w3.org/2000/svg">
<rect x="0.0644531" width="62.5991" height="64.4103" fill="#323238"/>
<path d="M47.2044 32.3032C47.2044 23.3549 40.156 16.1025 31.4593 16.1025C22.7626 16.1025 15.7142 23.3549 15.7142 32.3032C15.7142 40.3909 21.471 47.0926 28.9992 48.3077V36.9862H25.0014V32.3032H28.9992V28.734C28.9992 24.6743 31.3486 22.4309 34.9466 22.4309C36.6688 22.4309 38.4708 22.7473 38.4708 22.7473V26.7342H36.4842C34.5284 26.7342 33.9195 27.9841 33.9195 29.2656V32.3032H38.2863L37.5882 36.9862H33.9195V48.3077C41.4476 47.0926 47.2044 40.3909 47.2044 32.3032Z" fill="white"/>
</svg>
