<svg width="63" height="65" viewBox="0 0 63 65" fill="none" xmlns="http://www.w3.org/2000/svg">
<rect x="0.0322266" width="62.5991" height="64.4103" fill="#323238"/>
<g clip-path="url(#clip0_61385_216)">
<path d="M29.6678 48.3075C28.2241 48.3075 26.5379 48.2995 24.8738 48.2015C22.439 48.2579 20.0809 47.3239 18.3113 45.6023C16.6378 43.7822 15.73 41.3562 15.7852 38.8513C15.6821 36.915 15.6821 34.9572 15.6821 33.0638C15.6821 32.7775 15.6821 32.4912 15.6821 32.205C15.6821 31.9187 15.6821 31.6324 15.6821 31.3462C15.6821 29.4528 15.6821 27.495 15.7852 25.56C15.7304 23.0548 16.6381 20.6284 18.3113 18.8076C20.0809 17.086 22.439 16.1521 24.8738 16.2084C26.5431 16.1105 28.2241 16.1024 29.6678 16.1024H32.9973C34.441 16.1024 36.1272 16.1105 37.7926 16.2084C40.2271 16.1517 42.5849 17.0857 44.3538 18.8076C46.027 20.6284 46.9347 23.0548 46.8799 25.56C46.9817 27.495 46.9817 29.4528 46.9817 31.3475C46.9817 31.6338 46.9817 31.9201 46.9817 32.2063C46.9817 32.4926 46.9817 32.7784 46.9817 33.0638C46.9817 34.9572 46.9817 36.915 46.8786 38.8527C46.9338 41.3575 46.026 43.7836 44.3525 45.6037C42.5836 47.3256 40.2258 48.2596 37.7913 48.2029C36.1207 48.3008 34.4397 48.3089 32.996 48.3089L29.6678 48.3075Z" fill="white"/>
<path d="M38.643 25.2119C38.9514 25.4239 39.314 25.5371 39.6849 25.5371L39.6862 25.5384C40.1835 25.5377 40.6602 25.334 41.0116 24.9719C41.3629 24.6099 41.5603 24.1191 41.5603 23.6075C41.5603 23.2258 41.4503 22.8528 41.2442 22.5354C41.0382 22.2181 40.7453 21.9708 40.4026 21.8247C40.0599 21.6787 39.6829 21.6405 39.3191 21.7149C38.9553 21.7894 38.6211 21.9732 38.3589 22.243C38.0966 22.5129 37.918 22.8567 37.8456 23.231C37.7732 23.6053 37.8104 23.9933 37.9523 24.3459C38.0943 24.6985 38.3346 24.9999 38.643 25.2119Z" fill="#323238"/>
<path fill-rule="evenodd" clip-rule="evenodd" d="M31.3323 40.4651C29.7445 40.4649 28.1925 39.9802 26.8724 39.0723C25.5523 38.1645 24.5235 36.8743 23.916 35.3648C23.3086 33.8553 23.1498 32.1945 23.4597 30.5921C23.7696 28.9898 24.5344 27.518 25.6572 26.3629C26.78 25.2078 28.2106 24.4212 29.7679 24.1025C31.3252 23.7839 32.9393 23.9476 34.4062 24.5728C35.8732 25.1981 37.1269 26.2569 38.009 27.6153C38.8911 28.9737 39.362 30.5708 39.362 32.2045C39.3599 34.3951 38.5133 36.4953 37.0079 38.0443C35.5025 39.5932 33.4613 40.463 31.3323 40.4651ZM31.3323 26.8377C30.3005 26.8377 29.2919 27.1525 28.4341 27.7423C27.5762 28.3321 26.9076 29.1704 26.5128 30.1512C26.1179 31.132 26.0146 32.2112 26.2159 33.2524C26.4172 34.2936 26.914 35.25 27.6436 36.0006C28.3731 36.7513 29.3026 37.2625 30.3146 37.4696C31.3265 37.6767 32.3754 37.5704 33.3286 37.1642C34.2818 36.7579 35.0965 36.0699 35.6697 35.1873C36.2429 34.3046 36.5488 33.2668 36.5488 32.2052C36.5488 30.7817 35.9992 29.4164 35.0209 28.4098C34.0426 27.4032 32.7158 26.8377 31.3323 26.8377Z" fill="#323238"/>
</g>
<defs>
<clipPath id="clip0_61385_216">
<rect width="31.2995" height="32.2051" fill="white" transform="translate(15.6821 16.1024)"/>
</clipPath>
</defs>
</svg>
