<svg width="63" height="65" viewBox="0 0 63 65" fill="none" xmlns="http://www.w3.org/2000/svg">
<rect width="62.5991" height="64.4103" fill="#323238"/>
<g clip-path="url(#clip0_61385_205)">
<path d="M47.8427 22.6044C46.6369 23.1285 45.3589 23.4742 44.0502 23.6302C45.4304 22.8177 46.463 21.5394 46.9557 20.0335C45.6604 20.7944 44.2413 21.33 42.7609 21.6166C41.8565 20.6618 40.6805 19.9973 39.3864 19.7097C38.0922 19.4221 36.74 19.5248 35.506 20.0044C34.2721 20.484 33.2138 21.3182 32.4693 22.3982C31.7247 23.4782 31.3284 24.7538 31.3321 26.0586C31.3295 26.5579 31.3868 27.0558 31.5027 27.5419C28.8735 27.4138 26.3014 26.7418 23.9543 25.5696C21.6072 24.3975 19.5379 22.7516 17.8815 20.7396C17.0364 22.172 16.7784 23.8674 17.16 25.4804C17.5416 27.0934 18.5342 28.5026 19.9354 29.421C18.8823 29.3954 17.8516 29.1166 16.9334 28.6089V28.6897C16.9327 30.1916 17.4608 31.6475 18.428 32.8099C19.3951 33.9723 20.7417 34.7696 22.2389 35.0662C21.6717 35.2175 21.0865 35.2941 20.4988 35.2941C20.0821 35.2949 19.6663 35.2546 19.2578 35.1738C19.6798 36.4656 20.5019 37.5953 21.6091 38.4048C22.7163 39.2144 24.0531 39.6633 25.4325 39.6887C23.0921 41.4979 20.2 42.4789 17.2231 42.4733C16.6964 42.4726 16.1702 42.4414 15.6472 42.3799C18.6553 44.3049 22.1688 45.3259 25.7577 45.318C28.2333 45.335 30.6878 44.868 32.9783 43.9439C35.2687 43.0199 37.3496 41.6573 39.0999 39.9354C40.8502 38.2135 42.235 36.1666 43.1738 33.9137C44.1126 31.6608 44.5867 29.2468 44.5685 26.8122C44.5685 26.5304 44.5685 26.2486 44.5476 25.9731C45.8407 25.0516 46.9564 23.9108 47.8427 22.6044V22.6044Z" fill="white"/>
</g>
<defs>
<clipPath id="clip0_61385_205">
<rect width="32.1938" height="25.7641" fill="white" transform="translate(15.6498 19.5527)"/>
</clipPath>
</defs>
</svg>
