<svg width="63" height="65" viewBox="0 0 63 65" fill="none" xmlns="http://www.w3.org/2000/svg">
<rect width="62.5991" height="64.4103" fill="#323238"/>
<g clip-path="url(#clip0_61385_212)">
<path d="M47.6343 25.2419C47.6924 23.8619 47.2349 22.5138 46.3624 21.4932C45.4898 20.4726 44.2734 19.863 42.98 19.7981C39.4962 19.6239 35.9434 19.5528 32.3147 19.5528H31.1833C27.5615 19.5528 24.0018 19.6203 20.5179 19.7981C19.2242 19.8674 18.0089 20.4804 17.1378 21.5031C16.2666 22.5258 15.8106 23.8749 15.8694 25.2554C15.713 27.6485 15.6429 30.0319 15.6498 32.4214C15.6567 34.8108 15.713 37.1978 15.8636 39.5935C15.8023 40.976 16.2569 42.3281 17.1279 43.3539C17.9989 44.3797 19.2154 44.9955 20.511 45.0667C24.1708 45.2482 27.9259 45.3279 31.7432 45.3218C35.5666 45.3349 39.3107 45.2498 42.9754 45.0667C44.2711 44.9968 45.4882 44.3822 46.3602 43.3574C47.2322 42.3326 47.6883 40.981 47.6286 39.5984C47.7792 37.2028 47.8482 34.8145 47.8424 32.4201C47.8547 30.0274 47.7853 27.6346 47.6343 25.2419ZM28.663 39.0022V25.8196L37.7819 32.4079L28.663 39.0022Z" fill="white"/>
</g>
<defs>
<clipPath id="clip0_61385_212">
<rect width="32.1938" height="25.7641" fill="white" transform="translate(15.6498 19.5528)"/>
</clipPath>
</defs>
</svg>
